<?xml version="1.0" encoding="UTF-8"?>
<svg width="512" height="512" viewBox="0 0 512 512" fill="none" xmlns="http://www.w3.org/2000/svg">
    <path d="M256 48C141.1 48 48 141.1 48 256s93.1 208 208 208 208-93.1 208-208S370.9 48 256 48zm-78.9 194.5c-9.3 0-16.8-7.5-16.8-16.8s7.5-16.8 16.8-16.8 16.8 7.5 16.8 16.8-7.5 16.8-16.8 16.8zm157.8 0c-9.3 0-16.8-7.5-16.8-16.8s7.5-16.8 16.8-16.8 16.8 7.5 16.8 16.8-7.5 16.8-16.8 16.8zm-78.9 102.7c-52.4 0-94.9-42.5-94.9-94.9s42.5-94.9 94.9-94.9 94.9 42.5 94.9 94.9-42.5 94.9-94.9 94.9z" fill="#6366f1"/>
    <path d="M256 48v416c114.9 0 208-93.1 208-208S370.9 48 256 48zm0 189.7c-52.4 0-94.9 42.5-94.9 94.9s42.5 94.9 94.9 94.9 94.9-42.5 94.9-94.9-42.5-94.9-94.9-94.9z" fill="#4f46e5"/>
    <circle cx="177.1" cy="225.7" r="16.8" fill="white"/>
    <circle cx="334.9" cy="225.7" r="16.8" fill="white"/>
    <path d="M256 332.5c-52.4 0-94.9-42.5-94.9-94.9s42.5-94.9 94.9-94.9 94.9 42.5 94.9 94.9-42.5 94.9-94.9 94.9zm0-169.8c-41.3 0-74.9 33.6-74.9 74.9s33.6 74.9 74.9 74.9 74.9-33.6 74.9-74.9-33.6-74.9-74.9-74.9z" fill="white"/>
</svg>

